<svg version="1.1" xmlns="http://www.w3.org/2000/svg" fill="#f1c400"
xmlns:xlink="http://www.w3.org/1999/xlink"
viewBox="3.8243589401245117 0.00000762939453125 192.35128784179688 200">
<g
data-paper-data="{&quot;fillRule&quot;:&quot;nonzero&quot;,&quot;isIcon&quot;:true,&quot;iconStyle&quot;:&quot;standalone&quot;,&quot;selectedEffects&quot;:{&quot;container&quot;:&quot;&quot;,&quot;transformation&quot;:&quot;&quot;,&quot;pattern&quot;:&quot;&quot;},&quot;bounds&quot;:{&quot;x&quot;:65,&quot;y&quot;:176.26050318164314,&quot;width&quot;:112.98617399566871,&quot;height&quot;:117.47899363671374},&quot;iconType&quot;:&quot;initial&quot;,&quot;initialText&quot;:&quot;J&quot;,&quot;rawInitialId&quot;:653}">
<path
d="M151.69972,109.91502v-16.99717l-28.6119,-12.1813l1.69972,-3.68272l57.50708,24.92918l0.56657,-1.69972l-31.16147,-14.16431v-86.11898h-46.45892v67.4221l-55.80737,-5.38244zM50.84986,113.88103l2.26629,0.84986l3.39943,-7.64873l-49.85836,-22.94618l-2.83286,6.51558zM80.5949,132.8612l-1.69972,3.39943l22.09632,11.04816c-4.53258,5.38244 -13.03116,9.06516 -22.94618,9.06516c-17.28045,0 -27.47875,-10.48159 -27.47875,-28.04533v-10.48159l-12.46459,-6.23229l-33.99433,6.23229l0.28329,20.3966c0,38.24363 28.32861,61.75637 73.65439,61.75637c29.74504,0 54.95751,-14.44759 66.57224,-35.97734zM196.17564,154.95752l-90.93484,-43.90935v26.06232c0,1.13314 -0.28329,2.26629 -0.56657,3.11615l41.64306,20.3966c2.54958,-5.66572 4.24929,-11.61473 5.09915,-18.13031z"
fill-rule="nonzero"></path>
</g>
</svg>